# xmcd
#
# Track frame offsets: 
#        150
#        24267
#        36987
#        60130
#        89298
#
# Disc length: 1552 seconds
#
# Revision: 0
# Processed by: cddbd v1.5.2PL0 Copyright (c) Steve Scherf et al.
# Submitted via: ExactAudioCopy v0.99pb3
#
DISCID=2e060e05
DTITLE=Angry Johnny and the Killbillies - Killville Tales
DYEAR=1900
DGENRE=Country
TTITLE0=Indian Motocycle Song
TTITLE1=Done My Time In Hell
TTITLE2=Pomeroy Mountain
TTITLE3=Did I See You?
TTITLE4=Funny Thing 'Bout Heroes
EXTD=
EXTT0=
EXTT1=
EXTT2=
EXTT3=
EXTT4=
PLAYORDER=
